# xmcd
#
# Track frame offsets: 
#        150
#        19650
#        40650
#        66374
#        79683
#        96858
#        114778
#        145978
#
# Disc length: 2102 seconds
#
# Revision: 0
# Processed by: cddbd v1.5.2PL0 Copyright (c) Steve Scherf et al.
# Submitted via: ExactAudioCopy v0.99pb4
#
DISCID=5e083408
DTITLE=pockets - Come go with us
DYEAR=1977
DGENRE=R&B
TTITLE0=Come Go With Me
TTITLE1=Pasado
TTITLE2=One Day At A Time
TTITLE3=Doin' The Do
TTITLE4=In The Pocket
TTITLE5=Nothing Is Stronger
TTITLE6=Elusive Lady
TTITLE7=Wizzard Wuzzit
EXTD=
EXTT0=
EXTT1=
EXTT2=
EXTT3=
EXTT4=
EXTT5=
EXTT6=
EXTT7=
PLAYORDER=
